<?xml version="1.0" standalone="no"?>
<!DOCTYPE svg PUBLIC "-//W3C//DTD SVG 20010904//EN"
 "http://www.w3.org/TR/2001/REC-SVG-20010904/DTD/svg10.dtd">
<svg version="1.0" xmlns="http://www.w3.org/2000/svg"
 width="48" height="46" viewBox="64 52 896 896"
 preserveAspectRatio="xMidYMid slice">

<g transform="translate(0.000000,1024.000000) scale(0.100000,-0.100000)"
fill="#b70608" stroke="#000000" stroke-width="24" stroke-linejoin="round">
<path d="M5075 9566 c-22 -12 -186 -105 -365 -206 -535 -302 -1186 -671 -1770
-1002 -338 -192 -770 -437 -1360 -771 l-345 -195 0 -2033 0 -2034 220 -126
c121 -69 423 -242 670 -384 248 -142 583 -335 745 -428 162 -93 428 -245 590
-337 274 -156 476 -272 1140 -655 140 -81 310 -178 377 -217 l123 -70 232 133
c384 219 1006 572 1288 731 295 167 1634 930 2085 1188 l290 166 0 2033 0
2034 -415 234 c-545 309 -1484 840 -1885 1068 -176 100 -444 252 -595 337
-151 85 -396 224 -545 308 -148 85 -301 171 -340 192 -38 22 -74 43 -79 49
-14 12 -16 12 -61 -15z m273 -600 c507 -289 1158 -659 1412 -801 91 -51 374
-212 630 -357 256 -146 609 -346 785 -445 176 -99 335 -188 352 -199 l33 -19
0 -1776 0 -1775 -107 -60 c-311 -174 -1972 -1111 -2056 -1160 -32 -19 -60 -34
-63 -34 -2 0 -4 131 -4 290 l0 290 90 0 90 0 0 130 0 130 95 0 95 0 0 125 0
125 90 0 90 0 0 155 0 155 85 0 85 0 0 963 c0 529 3 1377 7 1885 l6 922 -81 0
-82 0 0 95 0 95 -320 0 -320 0 0 -100 0 -100 -105 0 -105 0 0 -475 0 -475
-380 0 -380 0 0 -90 0 -90 -70 0 -70 0 0 45 0 45 -85 0 -85 0 0 90 0 90 -335
0 c-260 0 -335 3 -337 13 -1 6 -2 21 -3 32 -1 11 -3 253 -4 538 l-1 517 -95 0
-95 0 0 95 0 95 -315 0 -315 0 0 -101 0 -102 -100 5 -100 5 0 -1144 0 -1143
-85 0 -84 0 -3 -92 -3 -93 -87 -3 -88 -3 -2 -554 c-1 -305 -2 -563 -2 -572 -1
-16 11 -18 92 -21 l92 -3 0 -184 0 -185 90 0 89 0 3 -142 3 -143 103 -3 102
-3 0 -122 0 -122 100 1 100 0 0 -187 0 -188 98 -3 97 -3 3 -247 2 -248 -27 12
c-16 7 -104 56 -198 109 -93 53 -197 111 -230 129 -33 18 -121 68 -195 110
-74 43 -441 252 -815 465 -374 213 -699 398 -723 411 l-42 25 2 1776 3 1777
50 29 c28 16 237 135 465 265 228 129 480 272 560 317 80 45 255 144 390 220
487 274 1889 1068 1935 1096 17 10 36 19 43 19 7 0 111 -56 230 -124z m-1359
-1348 l-2 -103 55 -3 55 -3 6 -382 c4 -210 7 -633 7 -939 l0 -558 -305 0 -305
0 0 400 0 400 60 0 60 0 0 105 0 105 -60 0 -60 0 0 435 0 434 63 3 62 3 3 103
3 102 180 0 180 0 -2 -102z m2751 -228 l0 -90 50 0 50 0 0 -426 0 -425 -57 2
-58 3 -3 -97 -3 -97 61 0 60 0 0 -341 0 -341 -72 4 -73 3 0 -135 0 -135 70 -1
70 -1 -1 -74 c-1 -41 -2 -147 -3 -235 l-1 -162 -70 -7 -70 -7 0 -104 0 -104
70 0 70 0 0 -315 0 -315 -80 0 -80 0 0 -174 0 -173 -90 5 -90 5 0 -132 0 -132
-150 4 -150 5 0 -119 0 -119 -225 0 -225 0 0 -125 0 -125 140 0 140 0 0 -225
0 -225 -905 0 -905 0 0 255 0 255 140 0 140 0 0 100 0 100 -215 0 -215 0 0
105 0 105 -140 0 -140 0 0 135 0 135 -125 0 -125 0 0 165 0 165 -95 0 -95 0
-2 213 -3 212 -65 2 c-36 0 -75 1 -87 2 l-23 1 0 330 0 330 86 0 85 0 -1 68
c-3 125 -15 112 105 112 l105 0 0 90 0 90 425 0 425 0 0 -85 0 -85 110 0 110
0 0 85 0 85 28 1 c89 5 373 6 405 2 l37 -5 0 -149 0 -149 -85 0 -85 0 0 -120
0 -120 -82 0 -83 0 3 -80 4 -80 -331 0 -331 0 0 80 0 80 -145 0 -145 0 0 -130
0 -130 75 0 75 0 0 -95 0 -95 135 0 135 0 0 -75 0 -75 80 0 80 0 1 -27 c1 -28
6 -101 8 -115 1 -5 42 -8 91 -8 l90 0 0 -85 0 -85 100 0 100 0 0 -125 0 -125
120 0 120 0 0 175 0 175 -105 0 -105 0 0 90 0 90 -100 0 -100 0 0 80 0 80 -80
0 -80 0 0 30 0 30 245 0 245 0 0 -90 0 -90 145 0 145 0 0 -85 0 -85 140 0 139
0 3 88 3 87 168 3 167 2 0 85 0 85 65 0 65 0 0 85 0 85 60 0 60 0 0 130 0 130
50 0 50 0 0 575 0 575 35 0 35 0 0 625 0 625 65 0 65 0 0 90 0 90 175 0 175 0
0 -90z m-1878 -1047 l3 -88 64 -5 65 -5 0 -307 1 -308 -322 0 -323 0 0 315 0
315 60 0 60 0 0 85 0 85 195 0 194 0 3 -87z m966 -91 l3 -92 63 0 c62 0 64 -1
69 -29 4 -17 7 -246 7 -510 l0 -481 -65 0 -65 0 0 -125 0 -125 -60 0 -60 0 0
-110 0 -110 -295 0 -295 0 0 100 0 100 75 0 75 0 0 145 0 145 75 0 75 0 0 235
0 235 -80 0 -80 0 2 278 3 277 85 0 85 0 3 80 3 80 187 -1 187 0 3 -92z m306
-4021 c-5 -5 -117 -70 -249 -144 -132 -74 -363 -205 -514 -291 l-274 -156
-191 108 c-580 329 -834 477 -830 484 3 4 469 8 1037 8 638 0 1027 -4 1021 -9z"/>
</g>
</svg>
